<svg width="109" height="31" viewBox="0 0 109 31" fill="none" xmlns="http://www.w3.org/2000/svg">
<path d="M35.156 24.6987H37.3418C37.6883 24.6987 37.9015 24.5654 38.0348 24.2189L39.9807 19.2076H47.9775L49.95 24.2189C50.0833 24.5388 50.2966 24.6987 50.6431 24.6987H52.8822C53.2287 24.6987 53.442 24.5921 53.442 24.3255C53.442 24.1922 53.3887 24.0589 53.3354 23.9257L46.1116 6.11946C45.9783 5.77293 45.7651 5.63965 45.4185 5.63965H42.7529C42.4064 5.63965 42.1932 5.79958 42.0332 6.14611L34.7028 23.9257C34.6228 24.1123 34.5962 24.1922 34.5962 24.2988C34.5962 24.5388 34.8094 24.6987 35.156 24.6987ZM41.1003 16.302L41.5801 14.9959C42.0332 13.7431 43.1794 10.7576 43.9791 8.70509H44.0324C44.6188 10.4111 45.5518 12.8101 46.3515 14.9959C46.5381 15.529 46.6714 15.8222 46.8579 16.302H41.1003Z" fill="#003087"/>
<path d="M62.3515 25.0186C66.19 25.0186 68.8289 22.0331 68.8289 17.6615C68.8289 13.4232 66.2966 10.2511 62.2715 10.2511C60.0857 10.2511 58.4864 11.344 57.6867 12.4902C57.7133 11.504 57.7133 10.6776 57.7133 9.71802V6.25274C57.7133 5.8529 57.5001 5.63965 57.1003 5.63965H55.0744C54.6746 5.63965 54.4613 5.8529 54.4613 6.25274V24.0856C54.4613 24.4854 54.6746 24.6987 55.0744 24.6987H56.9403C57.3402 24.6987 57.5534 24.4854 57.5534 24.0856V23.7391C57.5534 23.4192 57.5268 23.0727 57.5268 22.7261C58.3531 23.9523 59.9524 25.0186 62.3515 25.0186ZM61.6051 22.3796C59.0728 22.3796 57.5801 20.3538 57.5801 17.6082C57.5801 14.9159 59.2594 12.9434 61.6051 12.9434C64.0575 12.9434 65.4969 15.0492 65.4969 17.7148C65.4969 20.3804 64.0575 22.3796 61.6051 22.3796Z" fill="#003087"/>
<path d="M77.1405 25.1252C81.672 25.1252 84.5242 22.0331 84.5242 17.7148C84.5242 13.3166 81.6187 10.2245 77.1938 10.2245C72.7956 10.2245 69.8901 13.3166 69.8901 17.7148C69.8901 22.0064 72.6357 25.1252 77.1405 25.1252ZM77.1405 22.4063C74.6882 22.4063 73.2221 20.5404 73.2221 17.6882C73.2221 14.9159 74.7148 12.9434 77.1405 12.9434C79.5929 12.9434 81.0856 14.9159 81.0856 17.6882C81.0856 20.5404 79.6195 22.4063 77.1405 22.4063Z" fill="#003087"/>
<path d="M91.3848 25.0719C93.4639 25.0719 94.9033 24.1389 95.7297 22.6995V24.0856C95.7297 24.4854 95.9429 24.6987 96.3428 24.6987H98.2087C98.6085 24.6987 98.8218 24.4854 98.7951 24.0856V11.3174C98.7951 10.9175 98.5819 10.7043 98.182 10.7043H96.1562C95.7563 10.7043 95.5431 10.9175 95.5431 11.3174V18.0347C95.5431 20.2205 94.9833 22.3796 92.451 22.3796C90.2385 22.3796 89.5721 20.647 89.5721 18.168V11.3174C89.5721 10.9175 89.3589 10.7043 88.9591 10.7043H86.9332C86.5334 10.7043 86.3201 10.9175 86.3201 11.3174V18.9676C86.3201 23.206 88.2393 25.0719 91.3848 25.0719Z" fill="#003087"/>
<path d="M106.682 24.9652C107.429 24.9652 107.909 24.9386 107.909 24.2722V23.0194C107.909 22.5396 107.722 22.3796 107.375 22.3796C107.189 22.3796 107.109 22.4063 106.842 22.4063C105.883 22.4063 105.483 21.9798 105.483 20.6736V13.13H107.482C107.882 13.13 108.095 12.9167 108.095 12.5169V11.3174C108.095 10.9175 107.882 10.7043 107.482 10.7043H105.483V7.53222C105.483 7.13238 105.27 6.91914 104.87 6.91914H102.844C102.444 6.91914 102.231 7.13238 102.231 7.53222V10.7043H100.738C100.338 10.7043 100.125 10.9175 100.125 11.3174V12.5169C100.125 12.9167 100.338 13.13 100.738 13.13H102.231V21.1801C102.231 24.1123 103.857 24.9652 106.682 24.9652Z" fill="#003087"/>
<g clip-path="url(#clip0_366_966)">
<path d="M21.3441 8.07019C21.395 7.74498 21.4229 7.4234 21.429 7.10546C20.3296 6.52905 19.0396 6.2002 17.6247 6.2002H9.84982C9.41053 6.2002 9.03556 6.52056 8.96761 6.95378L7.50049 16.254C7.56844 15.8196 7.94341 15.5004 8.3827 15.5004H12.6797C17.0034 15.5004 20.673 12.3453 21.3441 8.07141V8.07019Z" fill="#001C64"/>
<path d="M7.50082 16.2538L6.15263 24.7992L5.30682 30.1605C5.23765 30.601 5.57743 30.999 6.02399 30.999H10.6875C11.1268 30.999 11.5017 30.6786 11.5697 30.2454L12.799 22.4535C12.8669 22.0191 13.2419 21.7 13.6812 21.7H16.4273C20.751 21.7 24.4206 18.5449 25.0917 14.2709C25.5674 11.236 24.0396 8.47527 21.4281 7.10645C21.4221 7.42438 21.3942 7.74596 21.3432 8.07118C20.6721 12.3463 17.0025 15.5002 12.6788 15.5002H8.38182C7.94253 15.5002 7.56756 15.8206 7.49961 16.2538" fill="#0070E0"/>
<path d="M6.1536 24.8002H0.72563C0.280276 24.8002 -0.0607166 24.4022 0.00845276 23.9617L3.66836 0.753582C3.73632 0.31915 4.11129 0 4.55057 0H13.8763C18.2922 0 21.5031 3.21334 21.4279 7.10624C20.3285 6.52983 19.0385 6.20097 17.6236 6.20097H9.84991C9.41063 6.20097 9.03566 6.52133 8.9677 6.95455L7.50059 16.2548L6.15239 24.8002H6.1536Z" fill="#003087"/>
</g>
<defs>
<clipPath id="clip0_366_966">
<rect width="25.1789" height="31" fill="white"/>
</clipPath>
</defs>
</svg>
